<?xml version="1.0" encoding="utf-8"?>
<!-- Generator: Adobe Illustrator 20.0.0, SVG Export Plug-In . SVG Version: 6.00 Build 0)  -->
<svg version="1.1" id="Layer_1" xmlns="http://www.w3.org/2000/svg" xmlns:xlink="http://www.w3.org/1999/xlink" x="0px" y="0px"
	 viewBox="0 0 630 630" style="enable-background:new 0 0 630 630;" xml:space="preserve">
<path d="M388,478.6c18.8,30.8,43.3,53.4,86.7,53.4c36.4,0,59.7-18.2,59.7-43.3c0-30.1-23.9-40.8-64-58.3l-22-9.4
	c-63.4-27-105.6-60.9-105.6-132.4c0-65.9,50.2-116.1,128.7-116.1c55.9,0,96,19.4,125,70.4l-68.4,43.9c-15.1-27-31.3-37.7-56.6-37.7
	c-25.7,0-42.1,16.3-42.1,37.7c0,26.4,16.3,37,54,53.4l22,9.4c74.7,32,116.8,64.7,116.8,138.1c0,79.1-62.2,122.5-145.6,122.5
	c-81.6,0-134.4-38.9-160.2-89.9L388,478.6z M77.5,486.2c13.8,24.5,26.4,45.2,56.6,45.2c28.9,0,47.1-11.3,47.1-55.2V177.4h87.9v300
	c0,91-53.4,132.4-131.2,132.4c-70.4,0-111.1-36.4-131.8-80.3L77.5,486.2z"/>
</svg>
