<?xml version="1.0" encoding="utf-8"?>
<!-- Generator: Adobe Illustrator 20.0.0, SVG Export Plug-In . SVG Version: 6.00 Build 0)  -->
<svg version="1.1" id="Layer_1" xmlns="http://www.w3.org/2000/svg" xmlns:xlink="http://www.w3.org/1999/xlink" x="0px" y="0px"
	 viewBox="0 0 630 630" style="enable-background:new 0 0 630 630;" xml:space="preserve">
<style type="text/css">
	.st0{fill:#F7DF1E;}
	.st1{font-family:'Helvetica-Bold';}
	.st2{font-size:143.2968px;}
</style>
<rect x="-653" y="-18.1" class="st0" width="630" height="630"/>
<path d="M372.7,262.3c28.2,6.8,55.1,5.8,79.8-18.9c20.7-20.7,23.6-44.4,9.3-58.7c-17.2-17.2-36.9-9.6-69.7,3.2l-17.9,7.1
	c-51.5,20.7-94.8,25.5-135.6-15.3c-37.5-37.5-37.5-94.7,7.2-139.4C277.7,8.5,311.6-3.4,357.1,9.1l-14,64
	c-23.9-6.8-39.3-3.6-53.7,10.7c-14.6,14.6-14.6,33.2-2.5,45.4c15.1,15.1,30.4,11.8,61.2-0.3l17.8-7.2
	c60.8-24.3,103.4-29.7,145.2,12.1c45.1,45.1,34.3,105.2-13.2,152.7c-46.5,46.5-98.7,54.4-142.4,40.1L372.7,262.3z M200.2,443.5
	c21.8,6.1,40.8,10.7,58-6.4c16.5-16.5,20.4-33.2-4.7-58.3L83.3,208.5l50.1-50.1l170.9,170.9c51.8,51.8,45.1,105.8,0.7,150.2
	c-40.1,40.1-84.1,42.6-120.8,29.3L200.2,443.5z"/>
<text transform="matrix(0.7071 -0.7071 0.7071 0.7071 316.67 644.0527)" class="st1 st2">Canon</text>
<text transform="matrix(0.7071 0.7071 -0.7071 0.7071 -23.9891 450.3807)" class="st1 st2">The</text>
</svg>
