<?xml version="1.0" encoding="utf-8"?>
<!-- Generator: Adobe Illustrator 20.0.0, SVG Export Plug-In . SVG Version: 6.00 Build 0)  -->
<svg version="1.1" id="Layer_1" xmlns="http://www.w3.org/2000/svg" xmlns:xlink="http://www.w3.org/1999/xlink" x="0px" y="0px"
	 viewBox="0 0 630 630" style="enable-background:new 0 0 630 630;" xml:space="preserve">
<style type="text/css">
	.st0{fill:#F7DF1E;}
	.st1{font-family:'Helvetica-Bold';}
	.st2{font-size:119.82px;}
</style>
<rect x="-653" y="-18.1" class="st0" width="630" height="630"/>
<path d="M378.7,219.8c23.6,5.7,46.1,4.8,66.8-15.8c17.3-17.3,19.7-37.1,7.8-49.1c-14.4-14.4-30.8-8.1-58.3,2.7l-15,5.9
	c-43.1,17.3-79.3,21.3-113.3-12.8c-31.4-31.4-31.4-79.2,6-116.6c26.6-26.6,55-36.5,93.1-26l-11.7,53.5c-20-5.7-32.9-3-44.9,9
	c-12.2,12.2-12.2,27.8-2.1,38c12.6,12.6,25.5,9.9,51.2-0.3l14.9-6c50.8-20.3,86.5-24.8,121.4,10.1c37.7,37.7,28.7,88-11,127.7
	c-38.9,38.9-82.5,45.5-119.1,33.5L378.7,219.8z M234.5,371.3c18.2,5.1,34.2,9,48.5-5.4c13.8-13.8,17-27.8-3.9-48.7L136.8,174.9
	l41.9-41.9l142.9,142.9c43.3,43.3,37.7,88.5,0.6,125.6c-33.5,33.5-70.3,35.6-101,24.5L234.5,371.3z"/>
<text transform="matrix(0.7071 -0.7071 0.7071 0.7071 331.8748 539.0375)" class="st1 st2">Canon</text>
<text transform="matrix(0.7071 0.7071 -0.7071 0.7071 47.0265 377.0951)" class="st1 st2">The</text>
</svg>
